<svg width="24" height="24" viewBox="0 0 24 24" fill="none" xmlns="http://www.w3.org/2000/svg">
<path d="M13.0016 5.67014C11.6741 6.75286 11.155 8.38512 11.656 9.64372C11.9287 10.3287 12.5914 11.124 13.54 11.2569C14.7835 11.431 15.9268 10.3841 16.2698 9.32902C16.7935 7.71766 15.4921 5.9594 14.1937 5.23733C12.3127 4.19148 9.90806 5.02516 8.58018 6.41765C6.73278 8.35476 6.89561 11.4509 8.04197 13.4992C9.46312 16.0391 12.3796 16.939 14.7319 16.6072C17.9 16.1602 19.9465 13.4925 20.5375 11.2172C21.3994 7.89927 19.0768 5.068 19.2198 5.00885C20.1912 5.86712 22.9687 9.82276 21.6524 14.5614C21.3112 15.7896 20.7123 16.7986 20.4606 17.1973C19.9869 17.9476 18.7548 19.6855 16.5005 20.8562C15.5649 21.3421 12.8951 22.5393 9.57989 21.7218C8.83011 21.5369 5.64982 20.6576 3.58198 17.3941C3.22915 16.8373 1.46769 13.9367 2.15948 10.0763C2.33541 9.09418 3.03799 5.99647 5.88896 3.86022C6.69521 3.25625 9.04554 1.7007 12.1559 2.05069C12.9716 2.14238 14.9317 2.39221 16.6159 4.01777C17.0128 4.40089 18.4569 5.83715 18.7305 8.18814C18.804 8.81951 19.0048 10.5439 17.9231 12.2012C17.6524 12.6158 16.7076 13.9363 14.9242 14.4043C14.5631 14.4989 12.5141 14.9926 10.7334 13.6175C10.3576 13.3275 8.96018 12.1558 8.88792 10.2341C8.8091 8.13766 10.3549 6.40424 11.9252 5.86712C12.3507 5.7216 12.7301 5.68 13.0016 5.67014Z" fill="white"/>
</svg>
