<svg width="24" height="24" viewBox="0 0 24 24" fill="none" xmlns="http://www.w3.org/2000/svg">
<path d="M12.8013 6.93611C11.7393 7.80229 11.324 9.1081 11.7248 10.115C11.943 10.663 12.4731 11.2992 13.232 11.4055C14.2268 11.5448 15.1414 10.7073 15.4158 9.86322C15.8348 8.57413 14.7936 7.16752 13.7549 6.58986C12.2502 5.75319 10.3264 6.42013 9.26414 7.53412C7.78623 9.0838 7.91649 11.5607 8.83358 13.1994C9.97049 15.2313 12.3037 15.9512 14.1855 15.6857C16.72 15.3281 18.3572 13.194 18.83 11.3738C19.5195 8.71941 17.6614 6.4544 17.7758 6.40708C18.5529 7.0937 20.775 10.2582 19.7219 14.0491C19.4489 15.0317 18.9698 15.8389 18.7685 16.1579C18.3895 16.7581 17.4039 18.1484 15.6004 19.085C14.8519 19.4736 12.7161 20.4315 10.0639 19.7775C9.46408 19.6295 6.91985 18.9261 5.26558 16.3153C4.98332 15.8698 3.57416 13.5494 4.12758 10.4611C4.26833 9.67535 4.83039 7.19718 7.11117 5.48818C7.75616 5.005 9.63643 3.76056 12.1247 4.04055C12.7773 4.1139 14.3454 4.31377 15.6927 5.61421C16.0103 5.92071 17.1655 7.06972 17.3844 8.95051C17.4432 9.45561 17.6038 10.8351 16.7385 12.1609C16.5219 12.4927 15.7661 13.5491 14.3393 13.9234C14.0505 13.9991 12.4113 14.3941 10.9867 13.294C10.6861 13.062 9.56814 12.1246 9.51033 10.5873C9.44728 8.91013 10.6839 7.5234 11.9402 7.0937C12.2806 6.97728 12.5843 6.94416 12.8015 6.93627L12.8013 6.93611Z" fill="white"/>
</svg>
